<svg viewBox="0 0 322.47 141.7" xmlns="http://www.w3.org/2000/svg"><rect fill="#5ea398" height="68.35" rx="34.17" width="267.57" x="4.45" y="58.39"/><g fill="#fff"><path d="m27.73 99.38c0-6 4.26-10.92 9.72-10.92a7.34 7.34 0 0 1 3.46.88l1.9-13.42c.09-.79 1.3-.88 1.94-.88h3.1a.77.77 0 0 1 .7.88l-4.3 30.63a1 1 0 0 1 -.93.88h-1.8c-.28 0-.61-.14-.74-.79l-.28-1.39a9.18 9.18 0 0 1 -6 2.64c-3.86 0-6.77-3.8-6.77-8.51zm8.27 3.51c1.95 0 3.43-2.08 3.75-3l.51-5.32a3.75 3.75 0 0 0 -2.82-1.11c-2.41 0-4.49 2.64-4.49 5.83-.04 1.98 1.12 3.6 3.05 3.6z"/><path d="m60.3 88.46c3.65 0 5.92 2.08 5.92 4.9 0 4.72-6.89 6.29-11.61 6.34-.14 1.9.74 3.38 3 3.38a6.56 6.56 0 0 0 3.39-1.08c.41-.28.83-.37 1.06 0l1.53 2.17a.93.93 0 0 1 -.14 1.2 9.81 9.81 0 0 1 -6.62 2.55c-4.44 0-7.35-3.8-7.35-8.24a11 11 0 0 1 10.82-11.22zm.7 5.46c0-.65-.51-1.16-1.57-1.16-1.85 0-3.61 1.76-4.12 3.33 2.21-.09 5.69-.69 5.69-2.17z"/><path d="m78.85 102.89 1.81-2.64a.91.91 0 0 1 1.43-.18 9.39 9.39 0 0 0 5.74 2.41 4.05 4.05 0 0 0 4.11-3.94c0-2-1.38-3.37-4-5.09-3-2-6.66-4.62-6.66-9.25s3.19-9.62 10.46-9.62a12.72 12.72 0 0 1 8.23 3 1.32 1.32 0 0 1 .14 1.86l-1.78 2.56c-.37.55-1 .6-1.62.09a9.11 9.11 0 0 0 -5.23-2 3.78 3.78 0 0 0 -3.93 3.6c0 1.86 1.25 2.78 4 4.63 3.06 2 7.13 4.58 7.13 9.67 0 5.41-4.21 10-11.06 10a12.66 12.66 0 0 1 -8.79-3.61c-.26-.38-.49-.79.02-1.49z"/><path d="m118.27 106.55a1 1 0 0 1 -.93.88h-1.8c-.28 0-.6-.14-.74-.79l-.28-1.39a8.47 8.47 0 0 1 -6 2.64c-3.88 0-6.8-3.8-6.8-8.51 0-6 4.12-10.92 9.53-10.92a6.75 6.75 0 0 1 5.21 2.54l.84-1.48a1 1 0 0 1 .83-.6h1.8a.69.69 0 0 1 .65.88zm-4-10.51a3.25 3.25 0 0 0 -3-2.59c-2.13 0-4.35 2.18-4.35 5.83 0 2 1.16 3.61 3.06 3.61s3.42-2.08 3.74-3z"/><path d="m128.12 75.92a1 1 0 0 1 .93-.88h4.07a.77.77 0 0 1 .69.88l-4.3 30.63a1 1 0 0 1 -.93.88h-4.11a.73.73 0 0 1 -.65-.88z"/><path d="m135.71 98.77 1.29-9a1 1 0 0 1 .88-.88h4a.7.7 0 0 1 .65.88l-1.3 9.11c-.32 2.45.46 4 2 4 2.26 0 3.51-2.64 3.51-2.64l1.44-10.45a.91.91 0 0 1 1-.88h3.8a.69.69 0 0 1 .64.88l-2.31 16.75a1 1 0 0 1 -.92.88h-1.81c-.37 0-.6-.33-.69-.7l-.33-1.53a7.64 7.64 0 0 1 -6 2.69c-4.97.01-6.56-4.39-5.85-9.11z"/><path d="m156.62 99.38c0-6 4.26-10.92 9.71-10.92a7.35 7.35 0 0 1 3.47.88l1.9-13.42c.09-.79 1.3-.88 1.94-.88h3.1a.77.77 0 0 1 .7.88l-4.3 30.63a1 1 0 0 1 -.93.88h-1.8c-.28 0-.61-.14-.74-.79l-.28-1.39a9.18 9.18 0 0 1 -6 2.64c-3.86 0-6.77-3.8-6.77-8.51zm8.23 3.51c2 0 3.43-2.08 3.75-3l.51-5.32a3.75 3.75 0 0 0 -2.82-1.11c-2.41 0-4.49 2.64-4.49 5.83 0 1.98 1.2 3.6 3.05 3.6z"/><circle cx="253.9" cy="74.58" r="60" stroke="#5ea398" stroke-miterlimit="10" stroke-width="4"/></g><path d="m263.05 104.7a78.48 78.48 0 0 1 -15-1.87c-3.7-.77-7.38-1.62-11-2.67a13 13 0 0 0 -6.29.07c-1.82.36-3.63.73-5.44 1.13-.43.1-.59 0-.74-.41q-3-8.57-6.07-17.1c-.18-.49-.11-.7.42-.83a17.55 17.55 0 0 0 5.61-2.67c6.31-4.3 13.05-5.13 20.15-2 2.17 1 4.33 2 6.41 3.1a79 79 0 0 0 13.29 5.49 27.38 27.38 0 0 0 4.61 1.18 4.15 4.15 0 0 1 1.87.91 2.56 2.56 0 0 1 -.63 4.64 9.51 9.51 0 0 1 -4 .41 23.65 23.65 0 0 1 -6.7-1.53 62.41 62.41 0 0 0 -6.32-1.65 5.36 5.36 0 0 0 -2.81.1c-.36.12-.67.3-.62.73a.63.63 0 0 0 .69.56c4.38.12 8.36 1.9 12.49 3a12.92 12.92 0 0 0 6.13.61c2.16-.44 3.81-1.48 4.43-3.75a3.09 3.09 0 0 0 0-1.78 2.17 2.17 0 0 1 1.21-2.68c2.55-1.48 5.09-3 7.49-4.71 1.13-.82 2.26-1.65 3.42-2.44a4.37 4.37 0 0 1 2.66-.89 2.07 2.07 0 0 1 1.39.47 3.24 3.24 0 0 0 1.93.87 2.2 2.2 0 0 1 2.08 1.66c.1.41.42.35.72.36a4.3 4.3 0 0 1 2.95 1.11 1.9 1.9 0 0 1 .47 2.43 19.2 19.2 0 0 1 -2.18 3.32 37.56 37.56 0 0 1 -18.83 12.65 50 50 0 0 1 -13.79 2.18z" fill="#cf5a2c"/><path d="m256.85 38.14a13.08 13.08 0 0 1 9.06 4c.53.52 1 1.43 1.63 1.44s1.12-.9 1.64-1.42a13.25 13.25 0 0 1 19 18.44c-6.59 6.76-13.35 13.36-20 20.06-.71.71-1.1.19-1.54-.24-2.79-2.79-5.57-5.6-8.37-8.39-3.65-3.67-7.33-7.31-11-11a13.26 13.26 0 0 1 9.53-22.88zm19.77 16.69c1.12 1.69 2.16 3.16 3.11 4.68a2.26 2.26 0 0 0 2.33 1.29c.86-.09 1.74 0 2.61 0a1.2 1.2 0 0 0 1.3-1.18 1.21 1.21 0 0 0 -1.3-1.2 14.9 14.9 0 0 0 -1.89 0 1.33 1.33 0 0 1 -1.38-.71c-1.26-2-2.58-3.9-3.88-5.85a1.39 1.39 0 0 0 -1.38-.82c-.6.09-.88.54-1.08 1.08-.56 1.52-1.14 3-1.7 4.54-.65 1.75-.64 1.7-2.54 1.78a1.47 1.47 0 0 1 -1.65-1.08c-.77-1.85-1.66-3.65-2.49-5.48a1.23 1.23 0 0 0 -1.33-.84 1.19 1.19 0 0 0 -1.05 1.07l-.12.53c-.74 3.2-1.47 6.4-2.26 9.84-.2-.55-.33-.87-.44-1.21-.5-1.5-1-3-1.5-4.51a1.44 1.44 0 0 0 -1.51-1.15c-2.57 0-5.15 0-7.73 0-1 0-1.54.49-1.52 1.28s.53 1.16 1.5 1.16h6.29c.6 0 .93.11 1.1.74.28 1.07.69 2.11 1 3.16q.89 2.64 1.76 5.28a1.22 1.22 0 0 0 1.24 1 1.17 1.17 0 0 0 1.17-1c0-.18.09-.35.13-.53.71-3.09 1.43-6.17 2.13-9.26.06-.27.08-.57.41-.62s.4.32.5.53a23.53 23.53 0 0 1 1.19 2.61 1.26 1.26 0 0 0 1.35.93c1.34 0 2.7-.05 4 0a1.62 1.62 0 0 0 1.79-1.27c.6-1.62 1.22-3.12 1.84-4.79z" fill="#cf5a2c"/><path d="m217.62 105.49a1.32 1.32 0 0 1 -1.26-.91l-5.91-16.58c-.21-.59-.45-1.17-.64-1.77a1.12 1.12 0 0 1 .74-1.56c1.77-.66 3.56-1.28 5.34-1.94.39-.15.52 0 .64.33q2.61 7.42 5.24 14.84c.57 1.63 1.14 3.25 1.74 4.87.17.45.1.65-.38.81-1.66.56-3.3 1.18-4.95 1.76-.18.06-.43.11-.56.15z" fill="#cf5a2c"/></svg>