<svg viewBox="0 0 368.43 141.7" xmlns="http://www.w3.org/2000/svg"><rect fill="#5ea398" height="68.35" rx="34.17" width="310.47" x="4.88" y="58.39"/><g fill="#fff"><path d="m28.52 75.92a1 1 0 0 1 .88-.92h17.12a.75.75 0 0 1 .7.88l-.56 3.79a1 1 0 0 1 -.92.88h-11.85l-1.06 7.59h9.8a.77.77 0 0 1 .7.88l-.56 3.84a1 1 0 0 1 -.92.88h-9.85l-1.16 8.09h11.93c.47 0 .7.42.65.88l-.51 3.8a1 1 0 0 1 -.92.88h-17.12a.69.69 0 0 1 -.65-.88z"/><path d="m49.76 89.8a.94.94 0 0 1 .88-.88h1.76a.68.68 0 0 1 .64.51l.42 1.76a9.24 9.24 0 0 1 6-2.73 5.42 5.42 0 0 1 4.95 2.86c.88-.83 3.38-2.86 6.29-2.86 5.23 0 6.94 4.39 6.25 9.25l-1.25 8.84a1 1 0 0 1 -.93.88h-4a.73.73 0 0 1 -.64-.88l1.34-9.16c.37-2.59-.42-3.94-2.18-3.94-2.22 0-3.56 2.46-3.56 2.46s-.14.18-1.62 10.64a1 1 0 0 1 -.92.88h-3.62a.69.69 0 0 1 -.65-.88l1.3-9.16c.32-2.41-.28-3.94-2.27-3.94-2.27 0-3.52 2.5-3.52 2.5l-1.52 10.6a1 1 0 0 1 -.93.88h-3.93a.71.71 0 0 1 -.65-.88z"/><path d="m84.5 120.43c-.09.55-.32.88-1.11.88h-4a.69.69 0 0 1 -.64-.75v-.13l4.3-30.63a.94.94 0 0 1 .88-.88h1.87a.72.72 0 0 1 .65.56l.37 1.52a8.83 8.83 0 0 1 5.92-2.54c4.07 0 6.8 3.79 6.8 8.32 0 6.25-4.39 11.11-9.76 11.11a6.21 6.21 0 0 1 -3.38-1zm5.23-17.54c2.55 0 4.44-2.77 4.44-5.64 0-2-1.11-3.8-3-3.8a4.51 4.51 0 0 0 -3.65 2.27l-.6 6a3.51 3.51 0 0 0 2.81 1.17z"/><path d="m104.81 89.8a1 1 0 0 1 .88-.88h1.81a.84.84 0 0 1 .69.6l.42 1.8a6.81 6.81 0 0 1 5-2.86 5.51 5.51 0 0 1 2.92.74c.32.23.37.6.09 1.11l-1.71 3a.7.7 0 0 1 -1 .38 4.62 4.62 0 0 0 -1.58-.28c-1.71 0-2.82 1.94-2.82 1.94l-1.51 11.2a.91.91 0 0 1 -1.06.88h-3.8a.71.71 0 0 1 -.65-.88z"/><path d="m128.08 88.46c3.66 0 5.93 2.08 5.93 4.9 0 4.72-6.9 6.29-11.62 6.34-.14 1.9.74 3.38 3.06 3.38a6.49 6.49 0 0 0 3.28-1.11c.42-.28.83-.37 1.07 0l1.52 2.17a.93.93 0 0 1 -.14 1.2 9.8 9.8 0 0 1 -6.61 2.55c-4.44 0-7.36-3.8-7.36-8.24a11 11 0 0 1 10.87-11.19zm.7 5.46c0-.65-.51-1.16-1.58-1.16-1.85 0-3.6 1.76-4.11 3.33 2.22-.09 5.69-.69 5.69-2.17z"/><path d="m135.49 105 1.52-2.36a.81.81 0 0 1 1.07-.23 6.56 6.56 0 0 0 3.33.88c.83 0 1.48-.41 1.48-1.06 0-.93-.47-1.39-2.5-2.59-2.31-1.3-3.75-2.73-3.75-5.37 0-3 1.76-5.78 7-5.78a9.45 9.45 0 0 1 5.36 1.51 1 1 0 0 1 .23 1.34l-1.57 2.32a.86.86 0 0 1 -1.21.18 7.21 7.21 0 0 0 -3.1-.69c-1 0-1.48.37-1.48 1.06s.56 1.11 1.85 1.81c2.78 1.52 4.86 2.91 4.86 5.87 0 3.2-2.45 6-7.31 6a8.93 8.93 0 0 1 -5.69-1.81.83.83 0 0 1 -.09-1.08z"/><path d="m168.33 106.55a1 1 0 0 1 -.92.88h-1.81c-.28 0-.6-.14-.74-.79l-.28-1.39a8.46 8.46 0 0 1 -6 2.64c-3.89 0-6.8-3.8-6.8-8.51 0-6 4.11-10.92 9.53-10.92a6.79 6.79 0 0 1 5.22 2.54l.83-1.48a1 1 0 0 1 .83-.6h1.81a.7.7 0 0 1 .65.88zm-4-10.51a3.23 3.23 0 0 0 -3-2.59c-2.13 0-4.35 2.18-4.35 5.83 0 2 1.15 3.61 3.05 3.61s3.42-2.08 3.75-3z"/><path d="m176.24 89.8a1 1 0 0 1 .88-.88h1.81a.84.84 0 0 1 .69.6l.42 1.8a6.81 6.81 0 0 1 5-2.86 5.51 5.51 0 0 1 2.92.74c.32.23.37.6.09 1.11l-1.71 3a.7.7 0 0 1 -1 .38 4.62 4.62 0 0 0 -1.58-.28c-1.71 0-2.82 1.94-2.82 1.94l-1.57 11.2a.91.91 0 0 1 -1.06.88h-3.8a.71.71 0 0 1 -.65-.88z"/><path d="m191.23 89.8a1 1 0 0 1 .93-.88h4.07a.71.71 0 0 1 .69.88l-2.36 16.75a1 1 0 0 1 -.92.88h-4.07a.77.77 0 0 1 -.7-.88zm1.16-10.23a3.66 3.66 0 0 1 3.61-3.57 2.73 2.73 0 0 1 2.78 2.82 3.71 3.71 0 0 1 -3.66 3.56 2.68 2.68 0 0 1 -2.73-2.81z"/><path d="m216.31 106.55a1 1 0 0 1 -.93.88h-1.8c-.28 0-.6-.14-.74-.79l-.28-1.39a8.47 8.47 0 0 1 -6 2.64c-3.88 0-6.8-3.8-6.8-8.51 0-6 4.12-10.92 9.53-10.92a6.75 6.75 0 0 1 5.21 2.54l.84-1.48a1 1 0 0 1 .83-.6h1.83a.69.69 0 0 1 .65.88zm-4-10.51a3.24 3.24 0 0 0 -3-2.59c-2.13 0-4.35 2.18-4.35 5.83 0 2 1.16 3.61 3.06 3.61s3.42-2.08 3.74-3z"/><path d="m226.16 75.92a1 1 0 0 1 .93-.88h4.07a.77.77 0 0 1 .69.88l-4.3 30.63a1 1 0 0 1 -.93.88h-4.11a.73.73 0 0 1 -.65-.88z"/><circle cx="300.26" cy="69.19" r="60" stroke="#5ea398" stroke-miterlimit="10" stroke-width="4"/></g><path d="m288.6 67.58q3.63 6.74 7.22 13.43h.12c.1-1.19.21-2.38.31-3.56.14-1.64.28-3.27.39-4.9a2.69 2.69 0 0 0 -.14-1c-.31-1-.64-2-1-2.92a2 2 0 0 1 .16-1.75c.19-.31.36-.63.54-.94a3.2 3.2 0 0 1 3-1.71h2.4a2.89 2.89 0 0 1 2.33 1.15 8.52 8.52 0 0 1 1.1 1.86 2.5 2.5 0 0 1 0 1.33 6.76 6.76 0 0 1 -.58 1.67c-.74 1.46-.52 3-.38 4.53.17 1.91.31 3.83.47 5.75 0 .17.05.33.1.64l7.24-13.47a15.29 15.29 0 0 1 5.54 3.7 21.73 21.73 0 0 1 5.25 10.61 41.86 41.86 0 0 1 .57 9.58h-.63c-4.88 0-9.76 0-14.63 0-.91 0-1.82-.11-2.73-.13-.37 0-.74.1-1.11.12a9.61 9.61 0 0 1 -1.2 0c-.65 0-1.3-.09-1.94-.17-.12 0-.21-.15-.36-.27-.18.6-.58.41-1 .26a2.64 2.64 0 0 0 -1-.22 4.08 4.08 0 0 0 -1 .32 1.49 1.49 0 0 0 -.3-.26.63.63 0 0 0 -.37-.06c-.35.83-.89.13-1.32.14a6.5 6.5 0 0 1 -1.31-.24l-.17.49h-16.91c0-1.32 0-2.61 0-3.9a23.22 23.22 0 0 1 7.08-16.92 19.47 19.47 0 0 1 4.26-3.16z" fill="#cf5a2c"/><path d="m299.4 60.8v.64c-.72-.13-1.42-.19-2.09-.36a12.06 12.06 0 0 1 -9.12-8.87 11.82 11.82 0 0 1 3.47-12.33 12.46 12.46 0 0 1 20.91 7.4 12.41 12.41 0 0 1 -10.78 14c-.41.06-.86.21-1.21-.21a.3.3 0 0 0 -.29 0c-.29.25-.61.14-.89-.27z" fill="#cf5a2c"/><path d="m255.19 91.52c0-.07-.07-.1-.07-.13 0-2.93-.15-5.88.09-8.79a12.29 12.29 0 0 1 12.13-11.22c2.36 0 4.72 0 7.08.07a10.66 10.66 0 0 1 4.51 1.29 27.16 27.16 0 0 0 -4.05 9 36.94 36.94 0 0 0 -.77 9.8z" fill="#cf5a2c"/><path d="m345.37 91.52h-19c.31-6.73-.68-13.18-4.43-19a8.4 8.4 0 0 1 3.45-1 64 64 0 0 1 9.29.08 12.26 12.26 0 0 1 10.69 12c.08 2.51 0 5 0 7.54a2.63 2.63 0 0 1 0 .38z" fill="#cf5a2c"/><path d="m260.88 58.52a10.56 10.56 0 1 1 10.56 10.6 10.55 10.55 0 0 1 -10.56-10.6z" fill="#cf5a2c"/><path d="m339.63 58.54a10.56 10.56 0 1 1 -10.51-10.54 10.56 10.56 0 0 1 10.51 10.54z" fill="#cf5a2c"/></svg>