<svg viewBox="0 0 312.51 135.57" xmlns="http://www.w3.org/2000/svg"><rect fill="#5ea398" height="68.35" rx="34.17" width="246.91" x="8.68" y="58.39"/><circle cx="244.09" cy="69.19" fill="#fff" r="60" stroke="#5ea398" stroke-miterlimit="10" stroke-width="4"/><path d="m280.85 44.46-12.2-12.19a6.85 6.85 0 0 0 -9.66 0l-41.11 40.73-6.64 6.29a2.11 2.11 0 0 0 -.6 1.08l-5.26 25.23a2.07 2.07 0 0 0 2 2.48 2.12 2.12 0 0 0 .49-.06l24.53-6a2.07 2.07 0 0 0 .89-.47l6.83-6.13s0 0 0 0l30.41-30.89 10.35-10.43a6.87 6.87 0 0 0 -.03-9.64zm-31 2.67 6 5.86-27.33 27.82-6.29-6.3zm-11.1 43.87-7.31-7.31 27.36-27.82 7.45 7.24zm-26.36 1.15 8.73 8.42-11 2.68zm18.55 6-5.08 1.24-12.48-12 1.16-5.55 4.74-4.49 16.49 16.5zm47-47-8.82 9-16.37-15.92 9.14-9.06a2.74 2.74 0 0 1 3.85 0l12.19 12.19a2.74 2.74 0 0 1 .07 3.86z" fill="#cf5a2c"/><g fill="#fff"><path d="m45 75.92a1 1 0 0 1 .9-.92h17.1a.75.75 0 0 1 .7.88l-.56 3.79a1 1 0 0 1 -.93.88h-11.82l-1.06 7.59h9.81a.77.77 0 0 1 .69.88l-.56 3.84a1 1 0 0 1 -.92.88h-9.81l-1.16 8.09h11.89c.47 0 .7.42.65.88l-.51 3.8a1 1 0 0 1 -.92.88h-17.12a.69.69 0 0 1 -.65-.88z"/><path d="m63.48 105 1.52-2.39a.8.8 0 0 1 1.06-.23 6.63 6.63 0 0 0 3.34.88c.83 0 1.48-.41 1.48-1.06 0-.93-.47-1.39-2.5-2.59-2.32-1.3-3.75-2.73-3.75-5.37 0-3 1.76-5.78 7-5.78a9.45 9.45 0 0 1 5.37 1.54 1 1 0 0 1 .23 1.34l-1.63 2.3a.85.85 0 0 1 -1.2.18 7.21 7.21 0 0 0 -3.1-.69c-1 0-1.48.37-1.48 1.06s.56 1.11 1.85 1.81c2.78 1.52 4.86 2.91 4.86 5.87 0 3.2-2.45 6-7.31 6a8.93 8.93 0 0 1 -5.69-1.81.85.85 0 0 1 -.05-1.06z"/><path d="m89.67 88.46a7.51 7.51 0 0 1 6.33 3.28c.28.42.05.93-.37 1.3l-1.85 1.71a.85.85 0 0 1 -1.16 0 3.73 3.73 0 0 0 -2.77-1.25c-2.22 0-4.49 2.27-4.49 5.46 0 2.22 1.2 4 3 4a4.63 4.63 0 0 0 3.29-1.76.73.73 0 0 1 1.15 0l1.81 1.76a.94.94 0 0 1 .14 1.29 8.8 8.8 0 0 1 -6.94 3.75c-4.58 0-7.92-3.66-7.92-8.61-.08-6.45 4.46-10.93 9.78-10.93z"/><path d="m108.17 88.46c4.26 0 7.36 3.88 7.36 8.42 0 6-4.63 11-10.09 11-4.3 0-7.35-4-7.35-8.47 0-5.91 4.53-10.95 10.08-10.95zm2.22 8.93c0-2.18-1.15-3.94-2.91-3.94-2.27 0-4.3 2.46-4.3 5.42 0 2.22 1.15 4 3 4 2.18.02 4.21-2.48 4.21-5.48z"/><path d="m122.7 75.92a1 1 0 0 1 .93-.88h4.07a.77.77 0 0 1 .69.88l-4.3 30.63a1 1 0 0 1 -.93.88h-4.11a.73.73 0 0 1 -.65-.88z"/><path d="m145.88 106.55a1 1 0 0 1 -.93.88h-1.8c-.28 0-.6-.14-.74-.79l-.28-1.39a8.47 8.47 0 0 1 -6 2.64c-3.88 0-6.8-3.8-6.8-8.51 0-6 4.12-10.92 9.53-10.92a6.8 6.8 0 0 1 5.22 2.54l.83-1.48a1 1 0 0 1 .83-.6h1.81a.69.69 0 0 1 .64.88zm-3.98-10.55a3.24 3.24 0 0 0 -3-2.59c-2.12 0-4.35 2.18-4.35 5.83 0 2 1.16 3.61 3.06 3.61s3.42-2.08 3.75-3z"/><path d="m153.79 89.8a.94.94 0 0 1 .88-.88h1.8a.85.85 0 0 1 .7.6l.41 1.8c.7-1 2.64-2.86 5-2.86a5.57 5.57 0 0 1 2.92.74c.32.23.37.6.09 1.11l-1.71 3a.71.71 0 0 1 -1 .38 4.53 4.53 0 0 0 -1.57-.28c-1.71 0-2.82 1.94-2.82 1.94l-1.57 11.2a.92.92 0 0 1 -1.07.88h-3.79a.71.71 0 0 1 -.65-.88z"/></g></svg>