<svg viewBox="0 0 343.91 146.3" xmlns="http://www.w3.org/2000/svg"><rect fill="#5ea398" height="68.35" rx="34.17" width="285.14" x="3.69" y="62.98"/><g fill="#fff"><circle cx="277.33" cy="72.76" r="60" stroke="#5ea398" stroke-miterlimit="10" stroke-width="4"/><path d="m26.32 80.52a1 1 0 0 1 .88-.88h12.21c4.54 0 7.82 3.88 7.82 8.65 0 5.64-3 9.3-7.35 10.68l3.79 11.85a.85.85 0 0 1 -.79 1.2h-4.39a.94.94 0 0 1 -1-.74l-3.4-11.94h-4.39l-1.7 11.8a1 1 0 0 1 -.88.88h-4.45a.68.68 0 0 1 -.65-.88zm9.9 13.87c2.92 0 4.86-2.45 4.86-5.36 0-2.08-1.3-3.84-3-3.84h-6.35l-1.29 9.2z"/><path d="m58.7 93.05c3.66 0 5.93 2.08 5.93 4.91 0 4.72-6.9 6.29-11.62 6.33-.13 1.9.74 3.38 3.06 3.38a6.4 6.4 0 0 0 3.28-1.11c.42-.28.83-.37 1.07 0l1.52 2.18a.93.93 0 0 1 -.14 1.2 9.8 9.8 0 0 1 -6.61 2.54c-4.44 0-7.36-3.79-7.36-8.23a11 11 0 0 1 10.87-11.2zm.7 5.46c0-.65-.51-1.16-1.57-1.16-1.86 0-3.61 1.76-4.12 3.34 2.22-.05 5.69-.69 5.69-2.18z"/><path d="m76.38 93.05a7.49 7.49 0 0 1 6.29 3.29c.28.41 0 .92-.37 1.29l-1.85 1.71a.85.85 0 0 1 -1.16 0 3.73 3.73 0 0 0 -2.77-1.25c-2.22 0-4.49 2.27-4.49 5.46 0 2.22 1.2 4 3 4a4.59 4.59 0 0 0 3.28-1.76.74.74 0 0 1 1.16 0l1.8 1.76a.94.94 0 0 1 .14 1.3 8.81 8.81 0 0 1 -6.94 3.74c-4.58 0-7.91-3.65-7.91-8.6-.04-6.45 4.5-10.94 9.82-10.94z"/><path d="m95.62 93.05c3.66 0 5.92 2.08 5.92 4.91 0 4.72-6.89 6.29-11.61 6.33-.14 1.9.74 3.38 3.06 3.38a6.43 6.43 0 0 0 3.28-1.11c.42-.28.83-.37 1.06 0l1.53 2.18a.93.93 0 0 1 -.14 1.2 9.8 9.8 0 0 1 -6.61 2.54c-4.44 0-7.36-3.79-7.36-8.23a11 11 0 0 1 10.87-11.2zm.7 5.46c0-.65-.51-1.16-1.58-1.16-1.85 0-3.61 1.76-4.11 3.34 2.22-.05 5.69-.69 5.69-2.18z"/><path d="m107.37 125c-.09.56-.32.88-1.11.88h-4a.69.69 0 0 1 -.65-.74v-.14l4.3-30.63a.94.94 0 0 1 .88-.87h1.85a.72.72 0 0 1 .65.55l.37 1.53a8.83 8.83 0 0 1 5.92-2.55c4.07 0 6.8 3.8 6.8 8.33 0 6.25-4.4 11.1-9.76 11.1a6.24 6.24 0 0 1 -3.38-1zm5.23-17.53c2.55 0 4.44-2.78 4.44-5.65 0-2-1.11-3.79-3-3.79a4.49 4.49 0 0 0 -3.65 2.27l-.6 6a3.54 3.54 0 0 0 2.81 1.19z"/><path d="m128.19 98.37h-1.66a.73.73 0 0 1 -.65-.88l.42-3.1a1 1 0 0 1 .87-.87h1.72l.69-5.14a1.08 1.08 0 0 1 .93-.88h4a.68.68 0 0 1 .6.88l-.69 5.19h3.33a.67.67 0 0 1 .65.87l-.42 3.1a1 1 0 0 1 -.92.88h-3.34l-1.06 7.31c-.19 1.3.46 1.48 1 1.48a5.58 5.58 0 0 0 1.85-.55.6.6 0 0 1 .88.51l.46 3c.09.46-.19.83-.69 1.11a14.49 14.49 0 0 1 -5.14 1.2c-3.19 0-4.53-2.22-4-6z"/><path d="m143 94.39a1 1 0 0 1 .93-.87h4.07a.72.72 0 0 1 .69.87l-2.36 16.75a1 1 0 0 1 -.92.88h-4.08a.77.77 0 0 1 -.69-.88zm1.16-10.22a3.66 3.66 0 0 1 3.56-3.61 2.73 2.73 0 0 1 2.77 2.82 3.7 3.7 0 0 1 -3.7 3.62 2.68 2.68 0 0 1 -2.68-2.83z"/><path d="m151.55 94.58a.78.78 0 0 1 .79-1.06h3.66a.67.67 0 0 1 .69.5l2.13 8.15h.18l4.31-8.17c.27-.46.6-.5 1.11-.5h3.84c.6 0 .83.55.46 1.15l-10.18 17.35a.84.84 0 0 1 -.79.46h-.18a.67.67 0 0 1 -.65-.46z"/><path d="m179.45 93.05c4.26 0 7.36 3.89 7.36 8.42 0 6-4.63 11-10.09 11-4.3 0-7.35-4-7.35-8.46 0-5.91 4.53-10.96 10.08-10.96zm2.22 8.93c0-2.17-1.15-3.93-2.91-3.93-2.27 0-4.3 2.45-4.3 5.41 0 2.22 1.15 4 3 4 2.18.03 4.21-2.46 4.21-5.46z"/><path d="m189.12 109.57 1.53-2.36a.8.8 0 0 1 1.06-.23 6.59 6.59 0 0 0 3.33.88c.84 0 1.48-.42 1.48-1.07 0-.92-.46-1.39-2.5-2.59-2.31-1.29-3.74-2.73-3.74-5.36 0-3 1.76-5.79 7-5.79a9.39 9.39 0 0 1 5.32 1.53 1 1 0 0 1 .24 1.34l-1.58 2.31a.85.85 0 0 1 -1.2.19 7.29 7.29 0 0 0 -3.1-.69c-1 0-1.48.37-1.48 1.06s.55 1.11 1.85 1.8c2.78 1.53 4.86 2.92 4.86 5.88 0 3.19-2.45 6-7.31 6a8.92 8.92 0 0 1 -5.69-1.8.83.83 0 0 1 -.07-1.1z"/></g><path d="m247 93.22a1.57 1.57 0 0 1 -1.55-1.59 1.62 1.62 0 0 1 1.55-1.57 1.66 1.66 0 0 1 1.57 1.61 1.6 1.6 0 0 1 -1.57 1.55z" fill="#cf5a2c"/><path d="m305.92 67.45a1.58 1.58 0 0 1 1.59 1.55 1.58 1.58 0 1 1 -3.16 0 1.59 1.59 0 0 1 1.57-1.55z" fill="#cf5a2c"/><path d="m296.68 49.76-2.44 1.66 1.76 1.85c.22-1.22.44-2.27.68-3.51z" fill="#cf5a2c"/><path d="m292.4 113.29a3.5 3.5 0 0 0 .74-1.24 3.17 3.17 0 0 0 -.34-1.57c-1.59-3.87-3.21-7.73-4.81-11.6-.09-.21-.16-.42-.27-.74h7.42a7.35 7.35 0 0 0 7.7-6.3q1.65-8 3.31-16a1.66 1.66 0 0 0 -.79-2 1.48 1.48 0 0 0 -1.89.36 2.51 2.51 0 0 0 -.44 1q-1.68 8-3.33 16a4.19 4.19 0 0 1 -4.45 3.8h-31.54a4.23 4.23 0 0 1 -4.36-3.08 4 4 0 0 1 3.46-5h1.2 21.26a8.79 8.79 0 0 0 3.71-.68 7.94 7.94 0 0 0 4.68-5.92q2.63-12.54 5.21-25.09l3.36-16.27a4.08 4.08 0 1 1 8 1.44q-1.83 8.88-3.68 17.76c-.32 1.55-.65 3.11-1 4.66a1.66 1.66 0 0 0 .6 1.87 1.34 1.34 0 0 0 1.71 0 2.63 2.63 0 0 0 .82-1.36c1-4.79 2-9.6 3-14.4q.81-3.92 1.61-7.82a7.4 7.4 0 0 0 -5.72-8.85h-.12a7.58 7.58 0 0 0 -2.33 0 .59.59 0 0 1 -.2 0c-3.1.81-5.08 2.48-6 6.32l-.25-.47a8.86 8.86 0 0 0 -8.45-5.53 8.71 8.71 0 0 0 -8.22 5.29c-1.46 3-1.35 8.57 1.7 11.51a3.54 3.54 0 0 1 .28.36c-.36.18-.7.34-1 .52a10.22 10.22 0 0 0 -5.28 7.5c-.31 1.69-.67 3.36-1 5a2.34 2.34 0 0 1 -.73 1.36c-.67.61-1.31 1.26-1.92 1.93a1.39 1.39 0 0 1 -1.11.47c-3.81 0-7.61 0-11.42 0a5.17 5.17 0 0 0 -4.92 2.88 4.81 4.81 0 0 0 -.37 3.57c.05.19.09.37.16.66h-1a6.55 6.55 0 0 0 -6.65 5.09c-.62 2.27-1.2 4.54-1.78 6.81a1.62 1.62 0 0 0 1.14 2.14 1.63 1.63 0 0 0 1.9-1.32.13.13 0 0 0 0-.06q.87-3.29 1.73-6.57a3.39 3.39 0 0 1 3.7-2.85h22.14a3.08 3.08 0 0 0 2.37-1c2.38-2.47 4.81-4.88 7.22-7.32.75-.76.94-1.41.62-2.09a1.62 1.62 0 0 0 -2.75-.31c-1.71 1.7-3.39 3.43-5.09 5.14-.64.65-1.26 1.32-1.93 1.93a1.38 1.38 0 0 1 -.87.38q-7.89 0-15.8 0a2 2 0 1 1 0-3.91h12.18a2.87 2.87 0 0 0 2.24-.93c2.74-2.8 5.52-5.56 8.27-8.34a3.1 3.1 0 0 0 .68-1 1.55 1.55 0 0 0 -2.37-1.77 14.25 14.25 0 0 0 -1.08 1l-.64.61c.3-2.65 1.24-4.75 3.45-6.05a6.88 6.88 0 0 1 10.31 4.36 8 8 0 0 1 -.1 3.58c-1.27 6.11-2.52 12.22-3.8 18.32a4.73 4.73 0 0 1 -4.94 4c-2.56 0-5.12 0-7.68 0-4.69 0-9.39 0-14.08 0a7.68 7.68 0 0 0 -5 1.61 7.51 7.51 0 0 0 -2.6 4.16c-.87 3.53-1.81 7-2.72 10.56-.76 2.92-1.52 5.85-2.29 8.77a1.72 1.72 0 0 1 -2 1.5h-3.11a1.64 1.64 0 0 1 -1.69-2.25q1.26-4.84 2.53-9.69a1.68 1.68 0 0 0 -.5-1.85 1.35 1.35 0 0 0 -1.65-.17 2.4 2.4 0 0 0 -.92 1.2c-.89 3.22-1.71 6.46-2.56 9.69a5 5 0 0 0 3.49 6.24.53.53 0 0 1 .21.11h5.37a.7.7 0 0 1 .16-.13c.47-.2.89-.34 1.27-.55a5 5 0 0 0 2.43-3.32l3.39-13.07c0-.16.1-.32.19-.59.25.19.46.34.66.51a7.42 7.42 0 0 0 5.06 1.85h7.5c-.12.33-.19.59-.3.83-1.64 4-3.3 7.92-4.94 11.88-.46 1.1-.27 1.72.81 2.48a.76.76 0 0 1 .17.13h25.51a.66.66 0 0 1 .15-.08zm-2.5-64.29a5.61 5.61 0 0 1 -5.18-3.92 17.09 17.09 0 0 1 -.53-2.71 6.74 6.74 0 0 1 2.55-5.47 6 6 0 0 1 9.17 2.77 7.72 7.72 0 0 1 -.52 6.5 5.57 5.57 0 0 1 -5.49 2.83zm4.34 2.44 2.44-1.66c-.24 1.2-.46 2.29-.71 3.51zm-23.12 55c1-2.5 2.09-5 3.09-7.49a1.07 1.07 0 0 1 1.21-.79h8.24c.34 0 .58.05.73.43 1.54 3.73 3.1 7.45 4.64 11.17a3.58 3.58 0 0 1 .12.41h-19.58c.53-1.32 1.04-2.55 1.55-3.77z" fill="#cf5a2c"/><path d="m244.92 113.36h5.55" fill="#cf5a2c"/><path d="m241.79 112.6c.91.3 1.87.48 2.81.7" fill="#cf5a2c"/></svg>