<svg viewBox="0 0 326.3 141.7" xmlns="http://www.w3.org/2000/svg"><rect fill="#5ea398" height="68.35" rx="34.17" width="267.57" x="10.78" y="58.39"/><g fill="#fff"><path d="m42.33 80.59h-6.11a.73.73 0 0 1 -.69-.88l.55-3.79a1 1 0 0 1 .92-.92h18.33a.74.74 0 0 1 .69.88l-.55 3.79a1 1 0 0 1 -.93.88h-6.11l-3.65 26a1 1 0 0 1 -.93.88h-4.48a.77.77 0 0 1 -.7-.88z"/><path d="m54.12 98.77 1.3-9a.94.94 0 0 1 .88-.88h4a.69.69 0 0 1 .65.88l-1.29 9.11c-.33 2.45.46 4 2 4 2.27 0 3.52-2.64 3.52-2.64l1.48-10.44a.92.92 0 0 1 1-.88h3.79a.69.69 0 0 1 .65.88l-2.31 16.75a1 1 0 0 1 -.93.88h-1.8c-.37 0-.6-.33-.7-.7l-.32-1.53a7.64 7.64 0 0 1 -6 2.69c-5.04 0-6.61-4.4-5.92-9.12z"/><path d="m77.53 89.8a1 1 0 0 1 .88-.88h1.81a.84.84 0 0 1 .69.6l.42 1.8a6.81 6.81 0 0 1 5-2.86 5.54 5.54 0 0 1 2.92.74c.32.23.37.6.09 1.11l-1.71 3a.7.7 0 0 1 -1 .38 4.62 4.62 0 0 0 -1.58-.28c-1.71 0-2.82 1.94-2.82 1.94l-1.57 11.2c-.09.64-.42.88-1.07.88h-3.77a.72.72 0 0 1 -.65-.88z"/><path d="m92.52 89.8a1 1 0 0 1 .93-.88h4.07a.74.74 0 0 1 .69.88l-2.36 16.75a1 1 0 0 1 -.92.88h-4.07a.77.77 0 0 1 -.7-.88zm-.14-7.08-.74-1.8a.66.66 0 0 1 .36-.92l7.59-4.49c.42-.28.88-.28 1.11.23l1.11 2.41a.89.89 0 0 1 -.41 1.25l-8 3.56c-.6.31-.83.18-1.02-.24z"/><path d="m100.66 105 1.53-2.36a.81.81 0 0 1 1.07-.23 6.56 6.56 0 0 0 3.33.88c.83 0 1.48-.41 1.48-1.06 0-.93-.47-1.39-2.5-2.59-2.31-1.3-3.75-2.73-3.75-5.37 0-3 1.76-5.78 7-5.78a9.45 9.45 0 0 1 5.31 1.51 1 1 0 0 1 .23 1.34l-1.57 2.32a.86.86 0 0 1 -1.21.18 7.21 7.21 0 0 0 -3.1-.69c-1 0-1.48.37-1.48 1.06s.56 1.11 1.85 1.81c2.78 1.52 4.86 2.91 4.86 5.87 0 3.2-2.45 6-7.31 6a8.93 8.93 0 0 1 -5.69-1.81.85.85 0 0 1 -.05-1.08z"/><path d="m120 93.78h-1.66a.73.73 0 0 1 -.65-.88l.42-3.1a1 1 0 0 1 .88-.88h1.71l.69-5.14a1.08 1.08 0 0 1 .93-.88h4a.67.67 0 0 1 .6.88l-.69 5.18h3.33a.67.67 0 0 1 .65.88l-.42 3.1a1 1 0 0 1 -.92.88h-3.33l-1.07 7.31c-.18 1.29.46 1.48 1 1.48a5.29 5.29 0 0 0 1.85-.56.61.61 0 0 1 .88.51l.46 3c.09.47-.18.84-.69 1.12a14.49 14.49 0 0 1 -5.14 1.2c-3.19 0-4.53-2.22-4-6z"/><path d="m134.76 89.8a1 1 0 0 1 .93-.88h4.07a.72.72 0 0 1 .69.88l-2.36 16.75a1 1 0 0 1 -.92.88h-4.07a.77.77 0 0 1 -.7-.88zm1.16-10.23a3.66 3.66 0 0 1 3.56-3.6 2.73 2.73 0 0 1 2.78 2.82 3.71 3.71 0 0 1 -3.66 3.56 2.68 2.68 0 0 1 -2.68-2.78z"/><path d="m153.17 88.46a7.52 7.52 0 0 1 6.3 3.28 1 1 0 0 1 -.37 1.3l-1.86 1.71a.84.84 0 0 1 -1.15 0 3.74 3.74 0 0 0 -2.78-1.25c-2.22 0-4.49 2.27-4.49 5.46 0 2.22 1.21 4 3 4a4.59 4.59 0 0 0 3.28-1.76.74.74 0 0 1 1.16 0l1.8 1.76a.94.94 0 0 1 .14 1.29 8.79 8.79 0 0 1 -6.94 3.75c-4.58 0-7.91-3.66-7.91-8.61-.03-6.45 4.5-10.93 9.82-10.93z"/><path d="m171.68 88.46c4.26 0 7.35 3.88 7.35 8.42 0 6-4.62 11-10.08 11-4.3 0-7.36-4-7.36-8.47 0-5.91 4.54-10.95 10.09-10.95zm2.22 8.93c0-2.18-1.16-3.94-2.91-3.94-2.27 0-4.31 2.46-4.31 5.42 0 2.22 1.16 4 3 4 2.18.02 4.22-2.48 4.22-5.48z"/><circle cx="258.96" cy="69.19" r="60" stroke="#5ea398" stroke-miterlimit="10" stroke-width="4"/></g><path d="m230.63 49.65v1.37a1.87 1.87 0 0 0 2 1.95h5.43a1.85 1.85 0 0 0 2-1.95v-1.33h.6 36.44c.53 0 .67.17.63.63-.19 2 .67 2.82 2.84 2.71 1.51-.07 3 0 4.53 0a1.85 1.85 0 0 0 2.09-2c0-.4 0-.81 0-1.37a21.39 21.39 0 0 1 3.08.27 3.08 3.08 0 0 1 2.28 2.88v.55 41.08a3.23 3.23 0 0 1 -2.4 3.3 5.29 5.29 0 0 1 -1.32.14h-59.67c-2 0-3.32-.83-3.75-2.41a3.9 3.9 0 0 1 -.1-1q0-20.73 0-41.46a3.29 3.29 0 0 1 3.58-3.4zm36.16 23.72c.2-1 .35-2 .58-2.94a1.26 1.26 0 0 1 .54-.74c1.54-.9 3.11-1.77 4.69-2.61a14 14 0 0 0 5.11-4.24c.39-.55.87-1.17.47-1.85s-1.21-.6-1.9-.56a12.76 12.76 0 0 0 -5.38 1.57c-1.89 1-3.76 2.08-5.64 3.11-.18.09-.42.22-.58.17-1.14-.36-2.27-.76-3.49-1.18.26-.16.42-.25.57-.36.41-.3.29-.63.08-1s-.43-.81-1-.56-1.21.69-1.95 1.13l-4.01-1.31a5.28 5.28 0 0 0 .52-.34c.42-.38.16-.73-.05-1.1s-.49-.59-.93-.38a5.63 5.63 0 0 0 -1.35.79.68.68 0 0 1 -.83.14c-1.12-.39-2.27-.72-3.36-1.17a2.46 2.46 0 0 0 -2.51.25c-.7.46-.73.54 0 1 2.58 1.65 5.22 3.22 7.72 5a31.93 31.93 0 0 1 3.47 3.25l-.49.3a40.84 40.84 0 0 0 -10.24 7 .92.92 0 0 1 -.72.1c-1.6-.49-3.19-1-4.78-1.54a.93.93 0 0 0 -1.14.25c-.08.11.22.54.43.74 1 1.06 2.14 2.09 3.21 3.13-.51.86-.51.86.62 1 .4 1.46.81 2.94 1.24 4.41.05.19.23.51.33.5a1.14 1.14 0 0 0 .63-.33 1.43 1.43 0 0 0 .25-.62c.31-1.46.64-2.91.91-4.38a1 1 0 0 1 .88-.92 33.12 33.12 0 0 0 9.27-3.85c.7-.42 1.43-.79 2.3-1.27a43.32 43.32 0 0 1 1.19 4.37 42.54 42.54 0 0 1 .32 4.52c.1 1.53.2 3.06.31 4.58 0 .25 0 .59.43.52a2.6 2.6 0 0 0 1.83-1.69c.26-1.28.5-2.56.74-3.85a.66.66 0 0 1 .53-.63 4.72 4.72 0 0 0 1.39-.78.75.75 0 0 0 .19-.68 1.33 1.33 0 0 0 -.56-.77c-.26-.12-.65 0-1 .06.26-1.37.52-2.74.76-4l1.67-.81c.49-.24.73-.54.41-1.08-.43-.72-.61-.81-1.28-.5z" fill="#cf5a2c"/><path d="m252.52 43.82v4.62h-3.4v-1.67c0-1 0-1.92 0-2.88a3.32 3.32 0 0 1 3.59-3.4q6.24 0 12.5 0a3.3 3.3 0 0 1 3.56 3.42v4.52h-3.37v-4.61z" fill="#cf5a2c"/><path d="m282.53 48.16h2.61c.79 0 1.07.28 1.08 1s0 1.23 0 1.84a.84.84 0 0 1 -1 .92c-1.82 0-3.65 0-5.47 0a.84.84 0 0 1 -.95-.92c0-.65 0-1.3 0-2s.33-.91 1-.92z" fill="#cf5a2c"/><path d="m235.42 48.16h2.58c.73 0 1 .27 1 1s0 1.26 0 1.89-.28.94-.91 1c-1.84 0-3.69 0-5.54 0a.82.82 0 0 1 -.89-.9c0-.65 0-1.3 0-2s.31-.93 1-.94c.94-.06 1.85-.05 2.76-.05z" fill="#cf5a2c"/></svg>