<svg viewBox="0 0 693.03 315.59" xmlns="http://www.w3.org/2000/svg"><path d="m311.93 201.02 91.32-.22-.2-85.51-83.34 78.41z" fill="#cf5a2c"/><path d="m272.21 111.7.07 29.13a14.48 14.48 0 0 0 4.33.82 14.94 14.94 0 0 0 5.51-.88 14.24 14.24 0 0 0 4.95-3.08l89.51-84.22a30.05 30.05 0 0 1 10.14-6.37 27.31 27.31 0 0 1 16.16-1.69l-.1-45.41h-12.67l-23.11 22.49z" fill="#5ea398"/><path d="m271.95.31.21 87.92 93.68-88.14z" fill="#5ea398"/><path d="m403 92-.06-29a14.9 14.9 0 0 0 -4.43-.88 14.23 14.23 0 0 0 -5.42.8 13.52 13.52 0 0 0 -4.83 3l-.24.23-89.52 84.22a29.17 29.17 0 0 1 -12.95 7.06 36 36 0 0 1 -4.15.89 18.51 18.51 0 0 1 -4.2.18 19 19 0 0 1 -4.87-.21l.11 42.87h15.2l20.36-19.86z" fill="#cf5a2c"/><g fill="#5ea398"><path d="m9.69 245.5a5.29 5.29 0 0 0 -1.69 1.17 5.58 5.58 0 0 0 -1.17 1.72 5.28 5.28 0 0 0 -.43 2.09 5.46 5.46 0 0 0 .43 2.12 5.55 5.55 0 0 0 1.17 1.74 5.62 5.62 0 0 0 1.73 1.17 5.17 5.17 0 0 0 2.13.43h45.89a11.3 11.3 0 0 1 4.39.86 12.9 12.9 0 0 1 3.61 2.26 12.62 12.62 0 0 1 1.25 1.52 20.4 20.4 0 0 1 1.13 1.72 11.61 11.61 0 0 1 1.27 5.42 12 12 0 0 1 -1.27 5.46 11.7 11.7 0 0 1 -10.55 6.36h-57.58v-6.36h57.62a5.25 5.25 0 0 0 2.14-.43 5.7 5.7 0 0 0 1.72-1.17 5.6 5.6 0 0 0 1.17-1.75 5.24 5.24 0 0 0 .43-2.11 5.08 5.08 0 0 0 -.43-2.09 5.87 5.87 0 0 0 -1.15-1.73 5.51 5.51 0 0 0 -1.68-1.17 5.11 5.11 0 0 0 -2.07-.43h-46.05a11 11 0 0 1 -5.34-1.39 15.67 15.67 0 0 1 -1.36-.82 6.94 6.94 0 0 1 -1.19-1 7.26 7.26 0 0 1 -1.38-1.44 13.35 13.35 0 0 1 -1-1.68 10.29 10.29 0 0 1 -1-2.58 11.15 11.15 0 0 1 -.43-2.78v-.25a11.09 11.09 0 0 1 .35-2.75 9.8 9.8 0 0 1 1-2.55 9.56 9.56 0 0 1 2.09-2.93 12.84 12.84 0 0 1 2.87-2.07 11.21 11.21 0 0 1 5.46-1.4h57.67v6.4h-57.62a5.17 5.17 0 0 0 -2.13.44z"/><path d="m145.29 268.83a11.2 11.2 0 0 1 -.45 3.2 10.74 10.74 0 0 1 -1.3 2.81 10.94 10.94 0 0 1 -2 2.3 10.8 10.8 0 0 1 -2.54 1.66 13.14 13.14 0 0 1 -2.22.74 10.13 10.13 0 0 1 -2.38.29h-47.68a9.51 9.51 0 0 1 -2.32-.29 15.24 15.24 0 0 1 -2.19-.74 11.41 11.41 0 0 1 -2.57-1.66 10.75 10.75 0 0 1 -2-2.3 11.1 11.1 0 0 1 -1.32-2.84 10.54 10.54 0 0 1 -.47-3.2v-30h6.36v30a4.39 4.39 0 0 0 .37 1.82 4.52 4.52 0 0 0 1 1.46 4.86 4.86 0 0 0 1.44 1 4.22 4.22 0 0 0 1.72.37h47.69a4.52 4.52 0 0 0 1.79-.37 4.78 4.78 0 0 0 1.45-1 4.54 4.54 0 0 0 1-1.46 4.39 4.39 0 0 0 .37-1.82v-30h6.28v30z"/><path d="m158.05 262.47v17.36h-6.36v-23.6h58.31a5.35 5.35 0 0 0 1.89-.6 5.45 5.45 0 0 0 1.56-1.21 6 6 0 0 0 1-1.7 5.35 5.35 0 0 0 .39-2 5.09 5.09 0 0 0 -.39-2 5.65 5.65 0 0 0 -1-1.66 6.07 6.07 0 0 0 -1.56-1.22 5.37 5.37 0 0 0 -1.89-.61h-52.73l-5.58-6.36h57.75a11.28 11.28 0 0 1 3.24.47 12.08 12.08 0 0 1 5.36 3.32 12.1 12.1 0 0 1 1.82 2.57 14.41 14.41 0 0 1 1 2.65 10.46 10.46 0 0 1 0 5.66 17.84 17.84 0 0 1 -1 2.69 9.53 9.53 0 0 1 -1.09 1.64c-.42.52-.87 1-1.33 1.48a18.9 18.9 0 0 1 1.33 1.48 9.16 9.16 0 0 1 1.09 1.64 17.29 17.29 0 0 1 1 2.71 10.57 10.57 0 0 1 .39 2.87v11.78h-6.35v-11.78a5.31 5.31 0 0 0 -.46-2.14 5.91 5.91 0 0 0 -1.19-1.78 5.52 5.52 0 0 0 -1.72-1.21 5 5 0 0 0 -2.09-.45z"/><path d="m275.47 262.47-2.79-3.12-2.79-3.12-6.56-7.63-21.67 24.87-5.55 6.36h-8.45l.94-1 4.64-5.33 9.48-11 2.75-3.12 2.79-3.12 9.48-11 1.28-1.48 4.31-4.88 4.14 4.88 1.4 1.48 9.48 11 2.79 3.12 2.79 3.12 9.48 11 4.64 5.33.9 1h-8.46l-5.49-6.36z"/><path d="m368.43 253.11-3.36 3.12-7.18 6.24-13.1 11.82-4.72 4.27-4.88-4.27-13.05-11.82-7.06-6.24-3.49-3.12v26.72h-6.24v-41l6.24 5.78 13 11.58 7.18 6.24 8.33 7.55 8.33-7.55 7.06-6.24 13-11.58 6.37-5.78v41h-6.37v-26.72z"/><path d="m381.48 279.83v-40.83h69.57v6.36h-63.2v10.88h63.2v6.36h-63.2v10.88h63.2v6.36h-69.57zm31.73-53.83-2.09 6.36h4.88l5.46-6.36z"/><path d="m463.81 262.47v17.36h-6.36v-23.6h58.32a5.35 5.35 0 0 0 1.89-.6 5.45 5.45 0 0 0 1.56-1.21 5.78 5.78 0 0 0 1-1.7 5.35 5.35 0 0 0 .39-2 5.09 5.09 0 0 0 -.39-2 5.45 5.45 0 0 0 -1-1.66 6.07 6.07 0 0 0 -1.56-1.22 5.37 5.37 0 0 0 -1.89-.61h-52.77l-5.58-6.36h57.78a11.28 11.28 0 0 1 3.24.47 12.19 12.19 0 0 1 2.92 1.31 11.92 11.92 0 0 1 4.26 4.58 14.41 14.41 0 0 1 1 2.65 10.46 10.46 0 0 1 0 5.66 17.84 17.84 0 0 1 -1 2.69 10.09 10.09 0 0 1 -1.08 1.64c-.43.52-.87 1-1.34 1.48a19 19 0 0 1 1.34 1.48 9.67 9.67 0 0 1 1.08 1.64 17.29 17.29 0 0 1 1 2.71 10.57 10.57 0 0 1 .39 2.87v11.78h-6.36v-11.78a5.3 5.3 0 0 0 -.45-2.14 6.3 6.3 0 0 0 -1.19-1.78 5.68 5.68 0 0 0 -1.73-1.21 5 5 0 0 0 -2.09-.45z"/><path d="m539.78 279.83h-6.36v-41h6.36z"/><path d="m545.9 259.35c0-.52 0-1 .08-1.54s.11-1 .16-1.58a21.46 21.46 0 0 1 1.89-6 20.71 20.71 0 0 1 3.53-5.05 7.71 7.71 0 0 0 .7-.7 21.08 21.08 0 0 1 6.3-4.12 19.25 19.25 0 0 1 7.7-1.54h49.08l-5.54 6.36h-43.54a13.22 13.22 0 0 0 -4.7.84 14.22 14.22 0 0 0 -7.12 5.81 13.65 13.65 0 0 0 -1.81 4.35 8.37 8.37 0 0 0 -.29 1.52c-.05.54-.08 1.08-.08 1.6s0 1.09.08 1.62a8.66 8.66 0 0 0 .29 1.5 13.65 13.65 0 0 0 1.81 4.35 14.13 14.13 0 0 0 7.12 5.8 13 13 0 0 0 4.7.85h43.54l5.54 6.36h-49.08a19.59 19.59 0 0 1 -7.7-1.52 20.24 20.24 0 0 1 -6.3-4.15l-.7-.69a20 20 0 0 1 -5.42-11c0-.47-.1-1-.16-1.5s-.08-1.02-.08-1.57z"/><path d="m669.56 262.47-2.79-3.12-2.77-3.12-6.57-7.63-21.67 24.87-5.54 6.36h-8.46l1-1 4.64-5.33 9.48-11 2.75-3.12 2.79-3.12 9.48-11 1.27-1.48 4.31-4.88 4.14 4.88 1.4 1.48 9.48 11 2.79 3.12 2.79 3.12 9.48 11 4.64 5.33.9 1h-8.45l-5.65-6.36z"/></g><path d="m89.53 290.35h-6.47a.64.64 0 0 1 -.63-.78l.36-2.29a.93.93 0 0 1 .86-.78h17.62a.65.65 0 0 1 .64.78l-.37 2.29a.87.87 0 0 1 -.85.78h-6.47l-3.7 24a1 1 0 0 1 -.9.78h-3.17a.71.71 0 0 1 -.68-.78z" fill="#7f7f7f"/><path d="m108.68 287.28a.93.93 0 0 1 .86-.78h11.3a7.61 7.61 0 0 1 7.64 7.62 9.84 9.84 0 0 1 -7.51 9.46l4.03 10.42a.79.79 0 0 1 -.73 1.15h-3.39a.81.81 0 0 1 -.85-.57l-3.35-10.58h-6l-1.63 10.41a.92.92 0 0 1 -.86.78h-3.12a.62.62 0 0 1 -.63-.78zm9.58 13.11a5.79 5.79 0 0 0 5.43-5.7 4.05 4.05 0 0 0 -3.89-4.22h-6.91l-1.54 9.92z" fill="#7f7f7f"/><path d="m130.37 314.12 16.81-27.58a.81.81 0 0 1 .77-.45h.41a.66.66 0 0 1 .63.45l8.18 27.58a.86.86 0 0 1 -.86 1.06h-2.71a.87.87 0 0 1 -.95-.61l-1.63-5.7h-12.42l-3.48 5.7a1.31 1.31 0 0 1 -1.13.61h-3.07c-.64 0-.86-.53-.55-1.06zm19.63-8.69-2.93-11.27h-.18l-6.37 11.27z" fill="#7f7f7f"/><path d="m167.74 286.83a.94.94 0 0 1 .91-.74h1.13l14.14 20.44h.08l2.85-19.25a.88.88 0 0 1 .86-.78h3.11a.69.69 0 0 1 .68.78l-4.29 27.57a.94.94 0 0 1 -.91.74h-1.26l-14.14-20.77-2.8 19.58a.93.93 0 0 1 -.9.78h-3a.69.69 0 0 1 -.68-.78z" fill="#7f7f7f"/><path d="m196.53 311 1.4-1.56a1 1 0 0 1 1.53-.12 8.83 8.83 0 0 0 5.7 2.5c2.8 0 5.1-1.92 5.1-4.34 0-2.13-1.8-3.48-4.92-5.16-3.3-1.81-6.24-4.14-6.24-8s3.26-8.23 10.21-8.23a12.19 12.19 0 0 1 7.32 2.38.91.91 0 0 1 .05 1.39l-1.22 1.47a1.16 1.16 0 0 1 -1.58.25 9.58 9.58 0 0 0 -5.06-1.68c-3.08 0-5.06 2.33-5.06 4.18s1.53 3.24 4.33 4.67c3.66 1.88 7.28 4.22 7.28 8.44 0 4.92-4.11 8.4-10.44 8.4a12.14 12.14 0 0 1 -8.36-3.24c-.31-.35-.63-.65-.04-1.35z" fill="#7f7f7f"/><path d="m226.58 287.28a.93.93 0 0 1 .9-.78h9.4a7.85 7.85 0 0 1 7.81 7.91 10.59 10.59 0 0 1 -10.61 10.36h-5.52l-1.49 9.63a1 1 0 0 1 -1 .78h-3a.68.68 0 0 1 -.68-.78zm7.77 13.48a5.88 5.88 0 0 0 5.55-5.94 4 4 0 0 0 -4-4.22h-5.2l-1.58 10.16z" fill="#7f7f7f"/><path d="m266.11 286.09a12.57 12.57 0 0 1 12.56 12.82 16.7 16.7 0 0 1 -17 16.68 12.49 12.49 0 0 1 -12.56-12.7 16.74 16.74 0 0 1 17-16.8zm-3.88 25.4c6 0 11.7-5.45 11.7-12 0-5-3.43-9.26-8.4-9.26-6 0-11.71 5.57-11.71 12.17 0 4.95 3.48 9.09 8.41 9.09z" fill="#7f7f7f"/><path d="m289 287.28a.93.93 0 0 1 .86-.78h11.3a7.61 7.61 0 0 1 7.63 7.62 9.83 9.83 0 0 1 -7.5 9.46l4 10.45a.79.79 0 0 1 -.73 1.15h-3.39a.83.83 0 0 1 -.86-.57l-3.31-10.61h-6l-1.63 10.41a.93.93 0 0 1 -.86.78h-3.12a.62.62 0 0 1 -.63-.78zm9.58 13.11a5.78 5.78 0 0 0 5.42-5.7 4 4 0 0 0 -3.88-4.22h-6.91l-1.54 9.92z" fill="#7f7f7f"/><path d="m321.78 290.35h-6.46a.64.64 0 0 1 -.63-.78l.36-2.29a.93.93 0 0 1 .86-.78h17.62a.64.64 0 0 1 .63.78l-.36 2.29a.88.88 0 0 1 -.86.78h-6.46l-3.7 24a1 1 0 0 1 -.91.78h-3.16a.7.7 0 0 1 -.68-.78z" fill="#7f7f7f"/><path d="m340.94 287.28a.93.93 0 0 1 .86-.78h16.4a.65.65 0 0 1 .64.78l-.37 2.29a.87.87 0 0 1 -.85.78h-12.52l-1.31 8.36h10.53a.67.67 0 0 1 .63.78l-.36 2.29a.92.92 0 0 1 -.86.78h-10.53l-1.35 8.81h12.51a.66.66 0 0 1 .63.78l-.36 2.25a.93.93 0 0 1 -.9.78h-16.36a.62.62 0 0 1 -.63-.78z" fill="#7f7f7f"/><path d="m382.42 299.77v-.08l-.77-1c-1.31-1.68-2.35-3.48-1.94-5.94.45-3.12 3.3-6.64 8.63-6.64 3.84 0 6.55 2.66 6.55 5.78 0 4.46-5.42 7.41-7.09 8.56l4.52 5.7a17.54 17.54 0 0 0 2.68-6.15c.18-.9.64-1.11 1.36-1l2 .36c.73.13.55.91.45 1.28a24.57 24.57 0 0 1 -4 8.07l3.35 3.93c.4.49.72 1-.23 1.6l-1.49.9c-.63.41-1.13.49-1.63-.16l-2.57-3.28a12.63 12.63 0 0 1 -9.45 3.85c-4.61 0-7.41-3.07-7.41-6.64-.01-5.57 5.62-8.19 7.04-9.14zm1.13 12.34a8.27 8.27 0 0 0 6.33-3l-5.42-7.05c-1.23.86-4.7 2.66-4.7 6.27a3.61 3.61 0 0 0 3.79 3.78zm7.32-19.79a3 3 0 0 0 -3.16-3.08 4 4 0 0 0 -3.93 3.53 5 5 0 0 0 1.31 4.26l.72.9c1.19-.78 5.06-2.99 5.06-5.61z" fill="#cf5a2c"/><path d="m424.58 290.35h-6.46a.64.64 0 0 1 -.63-.78l.36-2.29a.92.92 0 0 1 .86-.78h17.62a.64.64 0 0 1 .63.78l-.36 2.29a.89.89 0 0 1 -.86.78h-6.46l-3.71 24a1 1 0 0 1 -.9.78h-3.16a.69.69 0 0 1 -.68-.78z" fill="#cf5a2c"/><path d="m443.38 287.28a1 1 0 0 1 .9-.78h3.25a.62.62 0 0 1 .64.78l-2.62 16.92c-.64 4.1 1.35 7.25 5.24 7.25s6.91-3.11 7.54-7.17l2.67-17a.93.93 0 0 1 .86-.78h3.25a.63.63 0 0 1 .63.78l-2.66 17.21a12.79 12.79 0 0 1 -12.92 11.1 9.36 9.36 0 0 1 -9.45-11.1z" fill="#cf5a2c"/><path d="m475.82 287.28a.93.93 0 0 1 .86-.78h11.32a7.61 7.61 0 0 1 7.63 7.62 9.83 9.83 0 0 1 -7.5 9.46l4 10.45a.78.78 0 0 1 -.72 1.15h-3.41a.83.83 0 0 1 -.86-.57l-3.32-10.61h-6l-1.62 10.41a.93.93 0 0 1 -.86.78h-3.12a.62.62 0 0 1 -.63-.78zm9.58 13.11a5.78 5.78 0 0 0 5.42-5.7 4 4 0 0 0 -3.88-4.22h-6.94l-1.53 9.92z" fill="#cf5a2c"/><path d="m505.64 287.28a.93.93 0 0 1 .86-.78h3.17a.64.64 0 0 1 .63.78l-4.2 27.12a.93.93 0 0 1 -.86.78h-3.17a.64.64 0 0 1 -.63-.78z" fill="#cf5a2c"/><path d="m515.31 311 1.4-1.56a1.05 1.05 0 0 1 1.54-.12 8.83 8.83 0 0 0 5.69 2.5c2.81 0 5.11-1.92 5.11-4.34 0-2.13-1.81-3.48-4.92-5.16-3.3-1.81-6.24-4.14-6.24-8s3.25-8.23 10.21-8.23a12.22 12.22 0 0 1 7.32 2.38.92.92 0 0 1 .05 1.39l-1.22 1.47a1.16 1.16 0 0 1 -1.58.25 9.59 9.59 0 0 0 -5.07-1.68c-3.07 0-5.06 2.33-5.06 4.18s1.54 3.24 4.34 4.67c3.66 1.88 7.28 4.22 7.28 8.44 0 4.92-4.12 8.4-10.44 8.4a12.14 12.14 0 0 1 -8.36-3.24c-.36-.35-.63-.65-.05-1.35z" fill="#cf5a2c"/><path d="m548.39 286.7a.86.86 0 0 1 .81-.61h.64a.59.59 0 0 1 .63.45l5.42 20.53h.11l12-20.53a.81.81 0 0 1 .77-.45h.63a.65.65 0 0 1 .63.61l.64 27.54a.84.84 0 0 1 -.86.94h-3.07a.73.73 0 0 1 -.73-.82l.27-17.49h-.13l-10.3 18.27a.87.87 0 0 1 -.77.45h-.73a.59.59 0 0 1 -.63-.45l-4.38-18.27h-.18l-5.42 17.66a.92.92 0 0 1 -.86.65h-3.08c-.54 0-.81-.37-.63-.94z" fill="#cf5a2c"/><path d="m596.11 286.09a12.57 12.57 0 0 1 12.56 12.82 16.7 16.7 0 0 1 -17 16.68 12.5 12.5 0 0 1 -12.56-12.7 16.75 16.75 0 0 1 17-16.8zm-3.89 25.4c6.06 0 11.7-5.45 11.7-12 0-5-3.43-9.26-8.4-9.26-6 0-11.7 5.57-11.7 12.17 0 4.95 3.48 9.09 8.4 9.09z" fill="#cf5a2c"/><path d="m9.69 245.5a5.29 5.29 0 0 0 -1.69 1.17 5.58 5.58 0 0 0 -1.17 1.72 5.28 5.28 0 0 0 -.43 2.09 5.46 5.46 0 0 0 .43 2.12 5.55 5.55 0 0 0 1.17 1.74 5.62 5.62 0 0 0 1.73 1.17 5.17 5.17 0 0 0 2.13.43h45.89a11.3 11.3 0 0 1 4.39.86 12.9 12.9 0 0 1 3.61 2.26 12.62 12.62 0 0 1 1.25 1.52 20.4 20.4 0 0 1 1.13 1.72 11.61 11.61 0 0 1 1.27 5.42 12 12 0 0 1 -1.27 5.46 11.7 11.7 0 0 1 -10.55 6.36h-57.58v-6.36h57.62a5.25 5.25 0 0 0 2.14-.43 5.7 5.7 0 0 0 1.72-1.17 5.6 5.6 0 0 0 1.17-1.75 5.24 5.24 0 0 0 .43-2.11 5.08 5.08 0 0 0 -.43-2.09 5.87 5.87 0 0 0 -1.15-1.73 5.51 5.51 0 0 0 -1.68-1.17 5.11 5.11 0 0 0 -2.07-.43h-46.05a11 11 0 0 1 -5.34-1.39 15.67 15.67 0 0 1 -1.36-.82 6.94 6.94 0 0 1 -1.19-1 7.26 7.26 0 0 1 -1.38-1.44 13.35 13.35 0 0 1 -1-1.68 10.29 10.29 0 0 1 -1-2.58 11.15 11.15 0 0 1 -.43-2.78v-.25a11.09 11.09 0 0 1 .35-2.75 9.8 9.8 0 0 1 1-2.55 9.56 9.56 0 0 1 2.09-2.93 12.84 12.84 0 0 1 2.87-2.07 11.21 11.21 0 0 1 5.46-1.4h57.67v6.4h-57.62a5.17 5.17 0 0 0 -2.13.44z" fill="#5ea398"/></svg>